<?xml version="1.0" standalone="no"?>
<!DOCTYPE svg PUBLIC "-//W3C//DTD SVG 20010904//EN"
 "http://www.w3.org/TR/2001/REC-SVG-20010904/DTD/svg10.dtd">
<svg version="1.0" xmlns="http://www.w3.org/2000/svg"
 width="512.000000pt" height="512.000000pt" viewBox="0 0 512.000000 512.000000"
 preserveAspectRatio="xMidYMid meet">
<metadata>
Created by potrace 1.11, written by Peter Selinger 2001-2013
</metadata>
<g transform="translate(0.000000,512.000000) scale(0.100000,-0.100000)"
fill="#000000" stroke="none">
<path d="M2560 5074 c0 -8 -4 -13 -9 -10 -4 3 -17 -4 -27 -17 -13 -14 -14 -18
-4 -12 9 6 8 2 -2 -7 -11 -9 -20 -21 -21 -25 -1 -4 -6 -7 -11 -5 -5 2 -6 -4
-3 -13 4 -8 3 -15 -2 -15 -5 0 -16 -12 -26 -26 -9 -15 -12 -23 -5 -19 8 5 8 1
-1 -13 -7 -12 -18 -18 -24 -15 -5 4 -7 3 -3 -2 4 -4 2 -15 -5 -23 -10 -13 -9
-14 3 -7 12 7 13 6 3 -7 -7 -8 -10 -18 -6 -21 3 -4 2 -7 -4 -7 -6 0 -9 -11 -8
-25 2 -14 -1 -28 -6 -31 -6 -3 -5 -11 2 -20 6 -8 8 -14 4 -14 -4 0 -1 -8 6
-17 12 -15 12 -16 -1 -8 -13 8 -13 6 -2 -8 8 -9 11 -21 7 -27 -3 -5 -2 -10 4
-10 6 0 13 -11 17 -25 3 -14 11 -25 16 -25 6 0 8 -9 5 -21 -4 -15 -2 -19 9
-15 10 4 16 -3 21 -24 3 -16 9 -27 14 -24 5 3 12 -2 15 -10 3 -9 13 -16 21
-16 8 0 12 4 9 9 -3 5 0 11 7 14 8 3 13 19 12 40 0 20 2 34 6 31 4 -2 9 3 12
10 3 8 1 17 -6 19 -9 3 -9 8 1 19 10 13 10 17 0 20 -11 4 -11 8 0 20 10 13 10
17 -3 21 -8 4 -12 13 -9 21 3 8 1 23 -5 34 -8 14 -7 19 5 19 7 0 12 -2 9 -5
-2 -3 1 -14 7 -26 7 -11 13 -25 14 -31 2 -5 5 -21 8 -34 3 -12 11 -30 18 -39
8 -9 8 -13 2 -9 -7 4 -14 -2 -17 -13 -3 -11 -1 -18 4 -14 5 3 9 0 9 -5 0 -6
-4 -11 -9 -11 -6 0 -8 -9 -6 -20 3 -13 0 -18 -7 -14 -7 5 -9 2 -5 -8 3 -9 -1
-25 -9 -36 -13 -19 -13 -20 21 -9 19 5 32 14 29 19 -3 4 -1 8 4 8 16 0 49 35
44 48 -2 7 1 11 6 10 6 -2 10 0 11 5 0 4 7 20 14 35 15 30 16 60 4 80 -5 7 -3
12 5 12 9 0 9 3 -2 10 -8 5 -11 10 -6 10 5 0 3 7 -4 15 -6 8 -9 19 -5 25 3 5
1 10 -4 10 -6 0 -11 7 -11 15 0 8 -6 15 -12 15 -9 0 -8 4 2 10 11 7 11 10 2
10 -7 0 -10 5 -7 10 3 6 1 10 -6 10 -7 0 -10 3 -6 6 3 3 -3 22 -14 41 -11 19
-14 31 -8 28 6 -4 -1 14 -15 40 -15 25 -21 44 -14 40 7 -4 4 1 -7 10 -11 9
-19 17 -17 18 2 1 0 10 -3 20 -9 21 -25 22 -25 1z"/>
<path d="M3521 4882 c-6 -2 -8 -8 -5 -14 4 -6 -2 -5 -15 1 -15 8 -21 9 -21 1
0 -6 -4 -9 -9 -5 -5 3 -13 1 -16 -5 -5 -8 -11 -7 -21 1 -12 10 -15 10 -12 -2
2 -9 -5 -14 -19 -13 -13 1 -23 -3 -23 -7 0 -5 -3 -8 -7 -8 -26 4 -43 -2 -37
-13 5 -9 3 -9 -9 1 -14 11 -18 11 -23 -3 -3 -9 -10 -16 -16 -16 -5 0 -7 4 -4
9 4 5 -5 4 -18 -2 -13 -7 -22 -16 -18 -22 3 -5 -3 -3 -13 5 -10 8 -16 10 -12
4 8 -13 -19 -27 -34 -18 -5 3 -9 1 -9 -5 0 -10 -38 -27 -52 -23 -5 1 -8 -2 -8
-8 0 -5 -6 -10 -14 -10 -8 0 -17 -7 -20 -16 -4 -10 -14 -14 -26 -11 -11 3 -17
1 -14 -4 3 -5 -2 -12 -10 -15 -9 -3 -13 -11 -9 -17 3 -5 1 -7 -5 -4 -14 9 -43
-3 -36 -14 3 -5 -8 -17 -25 -26 -16 -10 -32 -26 -35 -36 -3 -12 -9 -16 -17
-11 -9 5 -10 2 -6 -9 3 -9 0 -18 -9 -21 -8 -3 -14 -12 -14 -21 0 -8 -4 -15 -8
-15 -5 0 -9 -7 -10 -15 -1 -8 -3 -22 -4 -30 -1 -8 -8 -17 -16 -20 -11 -4 -12
-8 -2 -20 10 -12 10 -15 0 -15 -7 0 -10 -7 -6 -16 4 -10 2 -13 -6 -8 -7 5 -9
-1 -6 -20 3 -14 2 -26 -2 -26 -5 0 -9 -15 -9 -32 -2 -57 -7 -87 -14 -94 -3 -4
-2 -15 3 -25 7 -12 7 -20 0 -24 -7 -4 -7 -13 0 -26 8 -13 7 -19 0 -19 -8 0 -8
-6 0 -20 8 -15 8 -20 -2 -20 -8 0 -9 -3 -3 -8 15 -11 17 -32 3 -32 -6 0 -3 -7
8 -16 10 -8 14 -13 9 -10 -6 2 -11 -4 -11 -14 0 -14 5 -16 22 -10 12 5 25 6
28 3 3 -4 6 -1 6 6 0 7 4 10 9 6 6 -3 14 3 20 12 6 10 11 14 11 10 0 -4 6 -2
14 5 8 7 12 16 9 20 -2 4 3 5 11 2 9 -4 18 1 22 10 3 9 13 16 21 16 8 0 12 3
10 8 -5 8 12 26 28 31 6 2 9 7 8 12 -2 5 4 9 12 9 8 0 15 7 15 16 0 9 5 12 12
8 7 -4 8 -3 4 5 -4 6 0 18 8 27 9 9 14 20 11 25 -4 5 -2 9 3 9 9 0 37 50 34
63 -1 4 2 7 8 7 5 0 10 9 10 20 0 11 5 20 12 20 6 0 8 3 5 7 -4 3 1 12 11 20
9 8 12 12 5 8 -9 -4 -10 1 -2 25 6 17 18 30 27 30 14 0 15 -2 3 -9 -13 -8 -13
-12 0 -27 9 -12 10 -15 1 -10 -9 6 -11 1 -8 -18 3 -18 1 -23 -9 -19 -11 4 -12
-1 -5 -26 6 -20 5 -33 -2 -37 -7 -5 -8 -2 -3 6 5 9 4 11 -4 6 -6 -4 -9 -16 -6
-27 4 -10 2 -19 -3 -19 -6 0 -9 -11 -8 -25 2 -13 -1 -22 -5 -19 -9 5 -12 -5
-12 -38 0 -10 -3 -16 -6 -13 -4 2 -13 -5 -20 -17 -10 -16 -10 -19 1 -13 7 3 3
-3 -10 -14 -13 -11 -24 -24 -25 -28 -1 -4 -5 -7 -9 -6 -4 2 -10 -6 -13 -17 -4
-11 -10 -18 -15 -15 -5 3 -15 -4 -23 -16 -8 -11 -22 -21 -30 -23 -21 -3 -48
-26 -42 -36 3 -5 -5 -6 -17 -2 -16 4 -20 2 -15 -10 3 -10 0 -15 -8 -14 -8 0
-14 -3 -14 -9 0 -5 8 -9 17 -8 9 1 25 -3 35 -9 14 -7 17 -7 13 1 -9 14 0 14
25 1 10 -6 19 -7 19 -2 0 5 7 9 15 9 8 0 15 -5 15 -11 0 -5 6 -1 14 9 13 18
13 18 24 -1 10 -16 11 -16 12 -2 0 12 8 15 29 14 17 -1 28 1 26 5 -3 3 9 9 26
13 17 3 28 10 25 15 -4 5 2 8 11 7 10 -2 29 5 42 15 13 10 28 16 34 12 6 -4 7
-1 3 6 -5 8 0 14 13 18 11 3 18 9 15 14 -3 5 0 9 5 9 6 0 11 7 11 15 0 8 5 14
11 12 6 -1 13 7 15 18 1 11 8 21 14 23 5 2 8 8 4 13 -3 5 0 9 6 9 6 0 8 5 5
10 -3 6 -2 10 3 10 8 0 10 6 14 50 1 11 5 20 8 20 4 0 7 6 7 13 0 6 4 28 8 47
4 19 8 41 8 48 0 6 4 12 9 12 5 0 7 4 3 9 -3 5 -1 12 4 16 5 3 8 14 6 25 -2
11 -1 20 3 20 4 0 9 9 10 20 4 44 6 50 14 50 5 0 6 5 3 10 -3 6 -3 16 1 22 5
7 9 19 10 28 4 26 9 45 15 55 4 6 5 18 4 28 -2 9 1 17 7 17 6 0 8 7 5 15 -4 8
-2 17 3 20 5 3 6 13 3 22 -4 10 -2 14 4 10 6 -4 11 2 12 16 1 40 4 57 11 57 4
0 6 14 5 31 -2 22 1 29 11 25 11 -4 12 -1 5 13 -6 10 -8 20 -6 23 5 5 -29 5
-44 0z"/>
<path d="M1656 4741 c-4 -7 -14 -10 -22 -7 -11 4 -12 1 -5 -13 6 -10 7 -21 4
-25 -3 -3 -1 -6 7 -6 10 0 10 -3 0 -15 -8 -9 -8 -15 -2 -15 6 0 10 -8 10 -17
0 -10 3 -27 7 -37 6 -14 5 -17 -4 -12 -9 6 -7 -2 3 -22 12 -23 13 -32 3 -35
-8 -4 -8 -6 0 -6 6 -1 9 -10 5 -23 -3 -14 -2 -19 6 -14 18 11 14 0 -5 -20 -17
-17 -17 -18 0 -11 14 5 16 2 13 -17 -2 -14 -2 -27 2 -31 7 -7 12 -39 15 -102
1 -24 4 -43 7 -43 3 0 6 -10 7 -22 4 -73 7 -99 13 -103 4 -3 6 -16 5 -30 -2
-14 1 -25 6 -25 5 0 9 -5 9 -11 0 -5 -4 -7 -10 -4 -6 4 -7 -2 -1 -18 5 -13 8
-38 7 -55 -1 -18 2 -28 8 -25 5 4 7 -1 3 -10 -3 -9 -1 -18 6 -21 8 -3 7 -5 -2
-5 -11 -1 -10 -5 5 -17 17 -14 17 -15 1 -10 -14 4 -16 2 -9 -12 5 -9 8 -32 8
-49 -1 -18 2 -33 5 -33 4 0 5 -10 5 -22 -1 -13 5 -32 13 -42 9 -11 10 -16 4
-12 -16 9 -16 6 2 -37 8 -19 11 -37 8 -40 -3 -4 1 -9 10 -13 9 -3 14 -14 12
-25 -2 -10 0 -19 6 -19 5 0 9 -5 9 -11 0 -7 8 -18 18 -26 10 -9 11 -12 2 -7
-9 4 -7 -1 5 -14 37 -38 44 -50 37 -58 -4 -4 -1 -4 6 0 7 4 15 1 18 -8 3 -9
13 -16 20 -16 8 0 17 -7 20 -15 4 -8 10 -12 15 -9 5 3 13 -3 17 -13 4 -10 14
-18 22 -18 8 0 14 -6 12 -14 -3 -12 0 -12 12 -2 11 9 16 9 22 0 5 -8 3 -9 -6
-4 -9 5 -11 4 -6 -3 4 -7 18 -12 32 -12 14 0 23 -4 20 -9 -3 -5 1 -12 10 -15
10 -4 13 -2 8 7 -6 9 -5 9 8 0 8 -7 18 -10 21 -6 4 3 7 1 7 -6 0 -7 6 -11 13
-8 6 2 21 -3 31 -12 16 -13 18 -13 11 -1 -6 12 -5 13 6 3 7 -7 17 -13 22 -13
4 0 5 6 1 13 -5 7 0 6 11 -3 10 -8 26 -16 37 -16 10 -1 19 -2 21 -4 8 -6 36
-7 32 0 -7 11 67 0 85 -13 8 -6 12 -7 8 -3 -4 5 0 15 10 23 15 12 14 13 -8 2
-23 -11 -24 -11 -11 4 12 15 11 17 -3 17 -9 0 -16 5 -16 11 0 5 -5 7 -11 4 -6
-4 -13 2 -16 14 -3 11 -9 18 -14 16 -4 -3 -17 3 -29 15 -11 11 -25 20 -31 20
-5 0 -8 4 -5 8 6 10 -30 43 -38 35 -3 -4 -6 1 -6 11 0 9 -4 14 -10 11 -5 -3
-10 1 -10 9 0 9 -4 16 -10 16 -5 0 -10 7 -10 17 0 9 -3 13 -7 10 -9 -10 -45
52 -37 65 4 6 3 8 -4 4 -6 -3 -15 9 -22 31 -6 21 -14 45 -17 53 -12 30 -25 95
-28 136 -1 17 -4 35 -7 40 -3 5 -4 17 -3 27 2 9 0 17 -4 17 -12 0 -10 33 3 49
9 12 8 13 -3 7 -9 -6 -12 -5 -9 5 3 8 1 22 -4 33 -8 14 -7 17 3 11 9 -6 10 -4
3 6 -11 18 -13 79 -2 73 5 -3 6 -10 3 -15 -4 -5 -1 -9 6 -9 8 0 7 -5 -2 -17
-12 -15 -12 -16 3 -10 13 5 16 0 15 -26 -1 -19 3 -31 10 -30 6 1 10 -5 8 -15
-1 -9 2 -23 8 -29 6 -9 5 -13 -4 -13 -10 -1 -9 -3 3 -10 10 -6 15 -20 14 -35
-2 -13 0 -23 3 -20 4 2 13 -5 20 -17 7 -11 8 -17 2 -14 -7 4 -8 1 -5 -8 3 -9
10 -16 15 -16 4 0 6 -6 3 -14 -3 -8 0 -17 5 -21 6 -3 9 -11 6 -16 -4 -5 -1 -9
5 -9 6 0 8 -4 5 -10 -3 -5 -1 -10 5 -10 6 0 8 -4 5 -10 -3 -5 -1 -10 5 -10 7
0 10 -6 8 -12 -3 -7 1 -19 9 -26 7 -8 11 -17 8 -22 -3 -4 3 -14 13 -21 16 -13
16 -13 2 6 -14 19 -14 19 2 6 10 -7 16 -17 13 -21 -2 -4 3 -17 13 -28 10 -11
27 -32 37 -46 10 -14 22 -23 27 -20 4 3 8 -2 8 -10 0 -9 5 -16 11 -16 5 0 7
-4 4 -10 -3 -6 1 -7 10 -4 9 4 15 3 14 -2 -3 -20 2 -35 11 -29 5 3 18 -3 30
-15 11 -11 25 -20 31 -20 6 0 9 -7 6 -14 -4 -10 -1 -13 9 -9 7 3 14 0 14 -7 0
-6 5 -8 10 -5 6 3 10 2 10 -3 0 -5 7 -9 15 -9 16 0 28 24 19 38 -3 5 -1 9 5 9
5 0 8 8 6 18 -1 9 2 22 7 29 6 7 5 14 -2 18 -8 5 -8 11 0 20 7 8 9 18 6 23 -3
5 1 20 9 35 8 15 10 27 6 27 -4 0 -8 7 -8 15 0 8 3 15 6 15 3 0 7 11 7 25 1
14 -2 22 -7 19 -5 -3 -6 2 -3 10 3 9 10 14 14 11 11 -7 0 36 -14 54 -9 12 -8
13 6 8 21 -8 20 12 -2 31 -8 8 -10 11 -4 8 19 -9 24 19 9 48 -8 15 -10 24 -6
21 5 -2 7 17 4 43 -3 26 -6 57 -6 69 -1 11 -5 19 -9 17 -4 -3 -6 8 -5 23 1 16
-3 27 -9 26 -6 -1 -11 4 -11 12 0 8 5 11 11 8 7 -5 7 -2 0 8 -6 8 -10 22 -9
32 2 9 0 17 -5 17 -7 0 -19 28 -24 55 -1 6 -8 9 -15 7 -8 -2 -11 3 -8 12 4 9
-4 27 -18 42 -14 15 -22 30 -19 35 3 5 -2 9 -10 9 -10 0 -16 9 -16 23 0 18 -2
19 -10 7 -6 -10 -10 -11 -10 -3 0 7 -15 27 -32 44 -18 17 -32 36 -30 41 1 5
-2 7 -8 3 -6 -4 -21 3 -33 14 -72 65 -93 81 -104 76 -12 -4 -17 7 -14 28 1 4
-4 7 -11 6 -27 -3 -39 1 -32 13 4 6 3 8 -4 4 -6 -3 -17 0 -25 8 -8 8 -17 12
-21 9 -3 -4 -6 0 -6 7 0 7 -3 11 -6 7 -4 -3 -13 1 -21 9 -9 8 -22 13 -30 10
-8 -3 -11 -1 -8 4 3 6 -3 10 -13 10 -11 0 -25 7 -32 15 -7 9 -15 13 -18 11 -2
-3 -11 2 -19 10 -8 8 -19 12 -24 9 -5 -4 -9 -1 -9 6 0 7 -3 9 -7 6 -3 -4 -12
1 -19 11 -9 11 -13 13 -14 4 0 -9 -9 -7 -30 8 -16 12 -30 19 -30 16 0 -3 -20
3 -44 14 -24 10 -47 16 -50 13 -3 -4 -6 -1 -6 5 0 7 -9 12 -19 12 -11 0 -21 5
-23 12 -3 9 -6 9 -12 -1z"/>
<path d="M942 4623 c6 -7 8 -24 6 -38 -3 -15 -1 -22 5 -18 6 4 8 0 4 -10 -3
-9 -1 -19 5 -23 7 -4 6 -9 -3 -15 -8 -5 -9 -9 -3 -9 5 0 11 -10 11 -22 2 -22
10 -87 16 -118 1 -8 7 -21 11 -29 7 -11 5 -13 -9 -7 -18 7 -18 6 0 -14 10 -11
15 -20 10 -20 -4 0 -2 -7 5 -15 7 -8 8 -15 3 -15 -12 0 -11 -43 1 -51 14 -10
16 -70 2 -62 -6 3 -6 0 2 -8 6 -7 12 -17 12 -22 0 -4 -6 -5 -12 -1 -7 4 -5 -2
5 -13 12 -14 15 -23 7 -28 -7 -4 -3 -17 12 -38 12 -17 16 -27 7 -22 -7 4 -3
-4 11 -20 14 -16 19 -25 13 -21 -7 4 -13 2 -13 -3 0 -6 4 -11 9 -11 5 0 12 -9
16 -20 3 -11 12 -19 18 -17 7 1 11 -4 9 -10 -1 -7 3 -13 9 -13 7 0 18 -8 26
-17 10 -12 12 -13 8 -3 -4 10 -2 9 8 -2 8 -10 19 -18 26 -18 6 0 11 -5 11 -11
0 -8 5 -7 16 1 12 11 15 11 12 -1 -2 -8 3 -13 10 -11 6 1 12 -2 12 -6 0 -5 6
-9 13 -10 6 0 28 -3 47 -7 72 -12 82 -12 96 3 8 8 12 17 9 20 -3 3 -12 -3 -19
-14 -14 -19 -14 -19 -13 1 1 11 -3 19 -10 18 -8 -2 -13 7 -13 20 0 15 -3 18
-8 9 -6 -9 -16 -4 -35 20 -15 17 -27 36 -27 41 0 4 -4 6 -8 3 -12 -7 -34 35
-35 67 -1 14 -5 23 -9 21 -4 -2 -9 0 -12 5 -4 5 -2 12 4 16 7 4 7 13 0 26 -6
11 -8 25 -4 31 4 6 3 8 -4 4 -6 -4 -10 6 -8 26 1 18 -2 39 -7 46 -5 6 -6 12
-2 12 4 0 3 6 -3 13 -8 10 -6 13 9 13 12 0 18 -5 15 -13 -3 -7 -2 -13 2 -13 4
0 8 -12 9 -26 0 -15 7 -30 15 -35 10 -6 10 -9 1 -9 -7 0 -13 -5 -13 -11 0 -5
4 -8 9 -4 8 4 31 -47 31 -68 -1 -4 6 -15 15 -23 8 -9 13 -19 10 -24 -3 -5 0
-12 6 -16 8 -5 9 -3 4 6 -6 9 -4 11 4 6 7 -5 10 -15 6 -24 -3 -9 -3 -13 1 -10
3 4 24 -11 45 -33 22 -22 39 -37 39 -33 0 5 7 -2 16 -14 9 -13 22 -21 30 -18
8 3 14 0 15 -7 1 -7 5 4 10 23 4 19 6 41 4 48 -2 6 0 12 5 12 5 0 7 9 5 20 -2
11 1 20 7 20 7 0 6 6 -2 15 -7 8 -8 15 -4 15 13 0 11 103 -1 112 -5 4 -1 8 10
8 19 1 19 1 2 11 -14 8 -16 14 -6 25 9 11 8 15 -5 20 -13 5 -14 9 -5 20 8 10
8 14 0 14 -6 0 -11 9 -11 20 0 27 -40 110 -52 110 -6 0 -8 7 -5 15 4 8 1 17
-5 21 -7 5 -8 2 -3 -7 4 -8 -2 -4 -14 8 -11 12 -21 28 -21 34 0 7 -3 10 -6 6
-3 -3 -17 5 -31 19 -13 13 -29 22 -34 19 -5 -4 -9 1 -9 9 0 8 -9 18 -20 21
-11 3 -20 11 -20 16 0 5 -5 9 -11 9 -5 0 -7 -6 -4 -12 4 -7 -2 -3 -13 9 -11
12 -22 19 -26 16 -3 -4 -6 -2 -6 4 0 10 -36 26 -52 24 -5 -1 -8 4 -8 10 0 6
-9 9 -20 6 -11 -3 -23 0 -27 5 -4 7 -1 8 8 3 12 -8 12 -6 0 9 -11 13 -16 14
-22 4 -7 -10 -9 -10 -9 0 0 6 -9 12 -20 12 -11 0 -20 4 -20 10 0 5 -7 7 -15 4
-8 -4 -15 -2 -15 3 0 5 -13 9 -29 8 -22 0 -27 -3 -19 -12z"/>
<path d="M3904 4592 c4 -8 -5 -10 -29 -8 -19 1 -35 -1 -35 -6 0 -4 -3 -7 -7
-7 -24 4 -45 -3 -63 -21 -11 -11 -20 -17 -20 -12 0 4 -11 -6 -25 -22 -13 -16
-22 -33 -18 -39 4 -6 0 -8 -10 -4 -13 5 -17 1 -17 -14 0 -11 -5 -17 -10 -14
-6 4 -13 -7 -16 -25 -4 -17 -11 -33 -15 -36 -5 -3 -6 -10 -3 -16 5 -7 2 -9 -7
-6 -10 4 -15 -1 -15 -12 0 -10 5 -16 11 -13 5 4 2 -3 -9 -15 -18 -21 -18 -21
8 -16 17 3 26 0 26 -8 0 -8 3 -9 8 -3 7 10 27 17 50 18 6 0 12 4 12 9 0 4 6 8
14 8 8 0 21 6 28 13 7 6 22 19 32 27 18 14 19 13 13 -3 -4 -12 -3 -16 4 -11 6
3 9 14 6 24 -3 13 0 17 9 13 8 -3 14 -1 14 5 0 5 7 12 15 16 12 4 13 2 2 -14
-6 -11 -15 -20 -20 -20 -4 0 -5 -4 -2 -10 3 -5 1 -10 -5 -10 -6 0 -8 -6 -4
-12 4 -7 4 -10 -1 -6 -11 11 -45 -10 -45 -28 0 -8 -4 -13 -9 -10 -5 3 -11 -1
-15 -9 -3 -8 -11 -15 -18 -14 -10 0 -10 2 0 6 6 2 12 9 12 15 0 6 -9 3 -21 -8
-12 -10 -30 -18 -41 -16 -14 3 -18 0 -13 -9 6 -8 4 -10 -6 -3 -20 12 -40 14
-33 3 3 -5 11 -7 17 -3 7 3 3 -2 -8 -12 -16 -13 -17 -16 -3 -11 10 3 20 2 23
-4 4 -5 11 -7 16 -4 5 4 9 1 9 -5 0 -6 5 -8 10 -5 6 3 10 3 10 -2 0 -4 20 -9
45 -10 32 -1 43 2 39 10 -5 9 -4 9 6 0 13 -12 58 1 72 22 4 5 13 10 20 10 7 0
17 10 23 23 5 12 17 22 25 22 13 0 13 1 0 10 -13 9 -7 14 13 11 4 0 7 6 7 14
0 8 3 15 8 15 4 0 13 14 20 30 8 17 18 28 22 25 5 -3 11 4 15 15 3 11 11 20
16 20 6 0 8 4 4 9 -3 5 4 12 15 16 11 4 18 10 15 15 -3 5 3 15 14 21 10 7 17
19 14 26 -3 8 0 13 8 11 7 -2 13 4 14 12 0 19 -76 42 -87 26 -5 -7 -8 -7 -8 2
0 8 -8 10 -26 6 -18 -5 -25 -3 -20 4 4 7 -2 8 -22 3 -17 -5 -36 -5 -47 1 -12
8 -16 7 -11 0z"/>
<path d="M4150 4101 c-8 -6 -18 -7 -22 -5 -4 3 -8 0 -8 -6 0 -8 -6 -7 -21 1
-17 9 -20 8 -14 -2 6 -9 3 -11 -8 -6 -10 3 -17 2 -17 -4 0 -6 -4 -7 -10 -4 -5
3 -10 2 -10 -3 0 -5 -11 -7 -25 -4 -16 3 -25 0 -25 -9 0 -7 -3 -9 -6 -6 -4 3
-16 2 -27 -4 -14 -8 -18 -8 -13 0 5 7 1 9 -8 5 -9 -3 -16 -11 -16 -18 0 -6 -5
-4 -10 4 -7 11 -10 11 -10 2 0 -7 -4 -10 -10 -7 -5 3 -10 2 -10 -2 0 -5 -9
-10 -20 -11 -44 -4 -50 -6 -50 -15 0 -6 -3 -7 -7 -4 -3 4 -13 1 -21 -6 -13 -9
-14 -9 -8 0 5 9 2 11 -8 7 -9 -3 -16 -10 -16 -15 0 -4 -7 -6 -15 -3 -8 4 -15
1 -15 -4 0 -6 -9 -9 -20 -7 -11 2 -20 -1 -20 -6 0 -6 -4 -7 -10 -4 -5 3 -10 2
-10 -4 0 -6 -7 -8 -16 -4 -10 4 -20 -1 -26 -11 -5 -9 -14 -14 -19 -10 -5 3
-16 0 -24 -6 -8 -6 -20 -8 -26 -4 -8 5 -10 2 -6 -8 4 -12 1 -14 -14 -11 -11 3
-19 0 -19 -6 0 -7 -4 -9 -10 -6 -5 3 -10 1 -10 -5 0 -6 -4 -9 -9 -5 -5 3 -12
1 -16 -5 -4 -6 -11 -8 -16 -5 -5 4 -9 2 -9 -4 0 -6 -7 -7 -17 -4 -11 4 -14 3
-9 -5 4 -7 2 -12 -3 -12 -18 0 -26 -3 -39 -17 -7 -7 -22 -13 -33 -13 -11 0
-17 -4 -14 -10 5 -9 -15 -15 -37 -11 -5 0 -7 -2 -7 -7 3 -19 -2 -25 -11 -12
-8 13 -10 12 -10 -2 0 -10 -7 -18 -15 -18 -8 0 -15 -5 -15 -11 0 -5 -4 -8 -9
-5 -5 3 -12 -1 -15 -9 -3 -8 -11 -14 -18 -13 -7 2 -12 -3 -10 -10 1 -8 -3 -12
-10 -10 -13 5 -55 -32 -50 -45 1 -5 -2 -6 -7 -3 -5 4 -25 -8 -43 -26 -18 -18
-36 -32 -40 -30 -5 1 -8 -7 -8 -19 0 -11 -4 -18 -9 -14 -5 3 -12 -4 -16 -15
-4 -11 -10 -18 -14 -15 -5 2 -13 -7 -19 -20 -7 -14 -16 -25 -21 -25 -6 0 -7
-7 -4 -17 5 -12 3 -14 -7 -8 -10 6 -12 4 -7 -8 4 -12 1 -17 -10 -17 -9 0 -14
-3 -11 -6 4 -3 -1 -22 -9 -42 -8 -20 -20 -48 -26 -62 -6 -14 -9 -31 -8 -39 1
-8 -2 -10 -10 -5 -9 5 -10 2 -6 -9 4 -10 2 -17 -5 -17 -7 0 -7 -4 1 -14 10
-11 8 -17 -6 -25 -10 -6 -14 -11 -9 -11 5 0 4 -6 -1 -12 -6 -7 -11 -20 -11
-28 -2 -23 -11 -85 -13 -87 -1 -2 -2 -7 -3 -12 0 -5 -4 -13 -8 -17 -13 -13 -9
-36 5 -28 9 6 9 5 0 -7 -14 -18 -20 -70 -9 -88 6 -10 5 -12 -2 -7 -12 7 -17
-31 -12 -78 1 -10 -4 -23 -12 -27 -8 -6 -9 -9 -1 -9 6 0 9 -9 5 -22 -4 -16 -2
-19 8 -13 9 6 11 4 5 -6 -13 -20 -14 -52 -2 -67 6 -7 6 -12 1 -10 -5 2 -9 -1
-9 -7 0 -5 4 -9 8 -7 5 1 5 -3 0 -10 -11 -19 -10 -98 2 -98 6 0 3 -5 -5 -10
-10 -6 -11 -10 -2 -10 6 0 12 -5 12 -11 0 -5 -6 -7 -12 -3 -10 6 -10 4 0 -7 6
-7 12 -19 12 -27 0 -8 -5 -10 -12 -6 -10 6 -10 4 -2 -7 6 -8 10 -24 9 -36 -1
-12 2 -20 6 -17 4 2 10 -4 12 -13 4 -17 5 -17 6 0 0 9 6 17 12 17 5 0 7 -5 4
-11 -4 -6 2 -5 13 2 12 7 18 18 14 24 -3 5 1 4 10 -3 12 -10 17 -10 27 1 6 8
7 18 3 23 -4 4 2 2 12 -6 13 -10 17 -10 12 -2 -5 8 -1 12 12 12 11 0 23 7 26
16 3 8 10 12 16 9 5 -3 10 1 10 9 0 9 3 15 8 14 13 -4 92 54 86 63 -3 5 2 9
11 9 10 0 13 5 9 12 -5 7 -3 8 5 4 14 -9 42 24 33 39 -3 5 3 3 13 -5 11 -9 16
-10 11 -2 -4 6 -2 12 3 12 6 0 11 7 11 17 0 9 3 14 6 10 7 -7 50 35 47 45 -2
5 2 8 9 8 6 0 9 3 5 6 -3 3 6 17 21 31 15 14 18 19 7 12 -11 -8 -3 7 18 32 20
25 34 49 30 52 -3 4 0 7 7 7 7 0 11 3 7 6 -3 3 3 16 14 27 11 12 17 27 14 35
-2 7 -1 11 4 8 5 -3 12 1 15 10 9 22 8 26 -6 18 -7 -4 -8 -3 -4 4 4 7 14 12
21 12 9 0 12 6 9 15 -4 8 -1 15 6 15 7 0 10 8 7 20 -3 11 -2 18 3 15 9 -6 24
24 21 43 -1 7 5 15 13 18 9 3 14 10 11 14 -3 5 1 15 9 23 11 11 12 17 3 26 -7
7 -7 11 -2 9 6 -2 11 2 13 7 2 6 11 19 20 29 9 11 11 16 4 12 -10 -6 -9 0 3
23 9 17 13 36 10 41 -3 5 0 7 8 4 14 -5 19 -54 5 -54 -4 0 -5 -11 -2 -24 2
-14 0 -28 -6 -31 -6 -4 -8 -10 -5 -15 3 -5 1 -11 -5 -15 -7 -4 -7 -12 0 -25 7
-13 5 -21 -6 -31 -8 -7 -13 -18 -10 -25 2 -6 -1 -20 -9 -30 -9 -13 -10 -23 -3
-31 7 -9 7 -13 -1 -13 -7 0 -10 -4 -6 -9 3 -5 1 -12 -5 -16 -6 -4 -8 -11 -4
-16 3 -5 -2 -21 -11 -36 -9 -14 -12 -23 -6 -19 5 4 4 -6 -4 -21 -8 -15 -15
-36 -15 -45 0 -10 -5 -18 -11 -18 -5 0 -8 -4 -5 -9 8 -13 -4 -42 -15 -36 -4 3
-6 -4 -4 -15 2 -11 0 -20 -5 -20 -5 0 -7 -7 -3 -15 3 -10 0 -15 -8 -13 -9 2
-13 -4 -11 -15 2 -11 -5 -25 -15 -33 -10 -7 -15 -14 -11 -14 3 0 -3 -12 -15
-26 -46 -54 -67 -77 -67 -72 0 3 -17 -11 -37 -30 -21 -20 -36 -40 -35 -46 2
-6 0 -8 -4 -4 -4 4 -13 3 -21 -3 -7 -6 -13 -8 -13 -3 0 5 -7 -2 -16 -14 -9
-14 -22 -21 -31 -18 -8 3 -11 1 -8 -4 3 -6 -1 -10 -10 -10 -9 0 -13 -5 -9 -11
4 -7 1 -10 -6 -7 -7 2 -24 -6 -38 -19 -13 -12 -28 -20 -33 -17 -5 3 -9 1 -9
-5 0 -6 -7 -7 -17 -4 -11 4 -14 3 -9 -5 4 -7 1 -12 -8 -12 -9 0 -16 -4 -16
-10 0 -5 -8 -10 -17 -10 -13 0 -11 -4 7 -13 17 -9 27 -10 32 -3 5 8 8 7 8 -1
0 -6 9 -9 22 -5 11 3 19 1 16 -4 -4 -5 4 -9 17 -9 13 0 22 2 20 5 -2 3 5 6 15
6 10 0 16 -4 14 -8 -7 -11 4 -10 28 3 15 8 19 8 14 0 -4 -6 0 -11 8 -11 9 0
16 5 16 11 0 8 5 8 15 -1 12 -10 15 -10 15 1 0 11 2 11 10 -1 5 -8 10 -10 10
-4 0 6 10 10 23 9 12 -1 28 2 35 8 8 6 12 6 12 -2 0 -8 5 -9 19 -2 10 6 21 7
25 4 3 -3 6 -2 6 4 0 6 10 10 23 9 12 -1 38 6 57 15 26 13 37 14 42 6 6 -9 8
-9 8 0 0 7 10 17 21 24 17 9 20 8 13 -3 -6 -10 -5 -11 8 -1 8 7 19 9 23 5 5
-4 5 -2 2 4 -8 14 20 27 35 17 7 -3 8 -1 4 5 -6 11 6 16 27 13 4 0 7 6 7 14 0
9 6 12 15 9 8 -4 15 -1 15 6 0 7 8 10 19 7 14 -3 18 -1 14 9 -5 12 8 19 29 15
5 0 7 3 5 7 -1 4 17 27 40 50 23 23 39 42 35 42 -3 0 3 7 14 15 10 8 15 15 10
15 -4 0 2 9 15 21 13 11 17 18 9 14 -10 -4 -9 -2 2 8 10 8 15 17 11 20 -3 4
-1 7 6 7 7 0 9 5 6 10 -3 6 -1 10 5 10 6 0 9 4 6 9 -3 5 1 14 9 21 8 7 12 16
9 21 -3 5 -1 9 5 9 6 0 8 6 5 14 -3 8 -1 17 5 20 6 4 7 14 4 23 -4 10 -2 14 4
10 6 -4 13 0 17 8 3 8 1 17 -4 20 -6 4 -3 16 5 29 9 13 15 28 14 32 -4 23 2
35 14 28 8 -5 8 -2 -2 9 -9 12 -10 17 -2 17 7 0 9 5 6 10 -4 6 -1 17 5 25 10
12 10 15 0 15 -9 0 -10 3 -1 13 6 8 8 17 4 20 -3 4 -1 7 6 7 7 0 11 10 10 23
-1 12 1 29 4 37 17 47 26 83 22 90 -3 4 1 10 9 13 9 4 12 15 9 31 -5 22 -2 25
13 20 14 -4 15 -3 6 4 -9 6 -11 18 -6 38 5 16 7 35 5 43 -1 7 2 10 8 7 5 -4
10 2 11 11 1 45 5 63 12 63 4 0 4 7 1 17 -4 10 -2 14 4 10 7 -5 9 1 5 15 -3
11 -1 19 4 15 5 -3 10 9 11 26 4 50 6 57 15 57 5 0 6 5 3 10 -3 6 -3 16 2 23
8 12 9 17 11 50 1 12 6 15 15 11 9 -6 9 -4 -1 8 -10 13 -10 17 4 22 13 5 14 9
4 21 -9 11 -9 15 -1 15 7 0 10 4 6 9 -3 5 -1 12 4 16 6 3 8 12 4 20 -3 8 0 15
7 15 6 0 8 4 5 10 -3 5 -1 18 4 28 7 13 6 23 -2 31 -9 10 -9 12 3 9 8 -2 15 4
16 12 0 8 2 17 3 20 2 3 4 12 6 20 8 38 11 45 20 52 6 5 5 8 -4 8 -10 0 -11 3
-2 13 6 8 8 17 4 20 -3 4 -1 7 6 7 7 0 10 4 7 9 -4 5 0 12 6 14 10 4 10 6 0 6
-8 1 -10 6 -5 14 19 31 7 43 -26 23 -10 -6 -12 -5 -7 2 9 14 6 15 -14 3z"/>
<path d="M1117 3483 c-13 -4 -16 -11 -12 -31 7 -31 13 -55 15 -62 1 -3 2 -13
1 -22 -1 -10 3 -18 9 -18 6 0 8 -4 5 -10 -3 -5 -2 -10 3 -10 6 0 8 -10 4 -22
-4 -16 -2 -19 9 -13 11 6 12 5 2 -5 -10 -11 -9 -17 4 -32 14 -15 15 -21 4 -27
-10 -6 -9 -10 4 -15 10 -3 15 -12 11 -21 -3 -8 0 -17 6 -21 7 -4 6 -9 -3 -15
-11 -7 -9 -9 6 -9 17 0 17 -2 5 -10 -12 -8 -12 -10 -1 -10 8 0 11 -3 8 -7 -4
-3 -1 -13 6 -21 10 -13 9 -14 -3 -7 -12 7 -13 6 -4 -6 7 -8 15 -30 20 -49 4
-19 9 -38 10 -42 1 -5 2 -13 3 -19 0 -5 6 -7 12 -3 8 4 8 0 0 -15 -8 -15 -9
-21 -1 -21 6 0 9 -4 5 -9 -3 -5 -1 -12 4 -16 5 -3 8 -14 6 -25 -2 -11 1 -20 6
-20 6 0 7 -4 4 -10 -3 -5 0 -10 7 -10 9 0 9 -3 -2 -10 -11 -7 -11 -10 -2 -10
7 0 10 -4 7 -10 -3 -5 0 -10 7 -10 10 0 10 -2 -1 -9 -8 -5 -9 -10 -3 -12 6 -2
13 -17 16 -34 12 -65 16 -79 23 -84 8 -6 13 -30 16 -83 1 -14 5 -24 8 -22 4 2
10 -3 13 -12 3 -8 2 -12 -4 -9 -6 3 -10 1 -10 -4 0 -6 5 -11 11 -11 5 0 7 -4
4 -10 -3 -5 -2 -10 3 -10 5 0 9 -6 9 -12 0 -7 3 -27 7 -43 6 -27 4 -31 -16
-31 -13 0 -26 5 -30 10 -5 7 -8 7 -8 -1 0 -9 -7 -10 -25 -3 -15 6 -26 6 -30 0
-4 -6 -11 -10 -16 -10 -6 0 -7 5 -3 12 5 7 3 8 -5 3 -7 -4 -36 -9 -63 -11 -28
-2 -53 -6 -56 -8 -2 -3 -13 -1 -23 4 -12 7 -20 6 -25 -2 -5 -7 -3 -8 6 -3 8 5
11 4 6 -3 -3 -6 -18 -9 -32 -6 -16 3 -23 1 -19 -6 4 -7 -2 -7 -17 -1 -21 8
-63 -7 -55 -20 1 -2 -2 -1 -6 2 -5 4 -24 3 -43 -3 -19 -5 -39 -6 -46 -2 -6 4
-8 3 -5 -3 8 -12 -20 -26 -34 -17 -5 3 -9 1 -9 -4 0 -6 -6 -9 -12 -9 -7 0 -27
-5 -45 -12 l-32 -13 44 -44 c25 -24 50 -44 57 -44 6 0 8 -3 5 -7 -4 -3 2 -13
13 -20 11 -8 18 -19 14 -24 -3 -5 -2 -9 3 -8 18 3 34 -1 30 -8 -3 -5 1 -13 8
-20 11 -10 15 -10 18 0 3 7 6 2 6 -10 1 -17 7 -23 24 -24 12 0 16 -3 9 -6 -9
-3 -3 -14 18 -34 17 -17 36 -27 42 -23 6 4 8 3 5 -3 -8 -13 27 -46 38 -36 4 5
5 2 1 -4 -4 -7 -2 -13 4 -13 6 0 8 -4 5 -10 -3 -6 4 -10 17 -10 17 0 19 -3 9
-9 -11 -7 -10 -10 6 -15 11 -4 26 -17 33 -31 7 -13 16 -23 19 -21 3 1 14 -5
24 -16 9 -10 14 -18 10 -18 -3 0 5 -10 19 -22 14 -13 28 -30 31 -38 3 -9 6
-10 6 -2 1 7 10 3 24 -10 12 -13 21 -26 19 -30 -1 -5 6 -8 16 -8 10 0 27 -7
38 -16 10 -8 12 -12 4 -8 -12 6 -13 5 -2 -7 11 -11 14 -12 21 -1 7 11 10 10
15 -3 3 -9 10 -14 15 -11 5 4 11 0 14 -6 3 -10 8 -9 22 2 10 8 16 10 12 4 -10
-16 18 -25 33 -11 9 8 11 9 7 1 -4 -7 2 -14 13 -17 11 -3 17 -1 14 4 -3 6 5 8
20 5 14 -3 28 0 32 5 4 6 11 6 20 -2 11 -9 14 -8 14 2 0 11 2 11 10 -1 7 -12
10 -12 10 -1 0 7 6 11 15 8 8 -4 17 -2 20 4 4 5 11 7 16 4 5 -4 9 -2 9 4 0 5
9 8 20 6 12 -2 23 2 27 10 3 8 9 15 15 15 5 0 6 -6 3 -12 -4 -7 0 -5 8 5 11
14 16 15 20 5 4 -8 6 -7 6 5 1 9 8 17 16 17 8 0 15 5 15 12 0 6 7 3 16 -8 8
-10 12 -13 9 -5 -5 9 0 8 18 -4 14 -9 28 -16 31 -16 23 3 36 -1 31 -9 -3 -5
-1 -10 4 -10 6 0 11 6 11 13 1 8 5 7 13 -3 7 -9 28 -17 47 -18 19 -2 37 -6 40
-10 3 -4 21 -7 40 -7 19 0 41 -4 48 -9 7 -5 12 -4 12 3 0 7 8 8 24 1 13 -5 27
-6 30 -3 3 3 13 0 23 -8 9 -8 14 -9 10 -2 -9 14 32 14 51 0 9 -7 11 -6 7 4 -4
11 5 14 40 14 25 -1 45 2 45 6 0 4 8 5 19 2 10 -3 22 1 26 9 5 7 5 10 1 6 -9
-8 -36 13 -30 23 2 3 -7 5 -21 4 -13 -2 -26 3 -29 11 -3 7 -21 20 -41 28 -19
8 -35 20 -35 26 0 6 -4 8 -10 5 -5 -3 -10 -1 -10 5 0 6 -4 9 -9 6 -5 -3 -21 6
-35 19 -15 14 -29 25 -32 25 -7 0 -31 20 -84 72 -26 26 -51 44 -54 41 -3 -4
-6 1 -6 10 0 9 -10 23 -22 31 -12 9 -19 16 -14 16 5 0 3 6 -3 13 -6 8 -7 18
-3 22 4 5 1 5 -5 1 -12 -6 -18 5 -14 27 0 4 -4 7 -11 7 -6 0 -8 3 -5 7 4 3 -2
20 -13 38 -11 18 -17 35 -13 38 3 4 1 7 -5 7 -6 0 -9 7 -6 15 4 8 1 15 -6 15
-6 0 -8 5 -5 10 3 6 1 10 -6 10 -9 0 -9 3 0 14 9 11 9 16 0 22 -8 5 -9 3 -4
-6 5 -8 4 -11 -3 -6 -6 3 -9 15 -7 26 2 11 0 20 -5 20 -5 0 -7 6 -4 14 3 8 1
17 -5 20 -6 4 -8 13 -4 21 3 9 -1 15 -8 15 -11 0 -11 3 1 10 12 7 12 10 1 10
-8 0 -11 6 -7 16 3 8 2 13 -3 10 -5 -3 -9 6 -10 19 -3 49 -4 55 -15 55 -6 0
-5 4 2 9 11 7 10 9 -3 14 -12 5 -14 11 -6 25 6 11 6 23 2 28 -5 5 -11 30 -14
57 -3 26 -9 52 -13 58 -4 7 0 7 15 -1 12 -6 19 -15 15 -21 -3 -5 -1 -15 5 -22
5 -7 12 -25 15 -41 3 -16 14 -38 25 -50 15 -16 17 -25 9 -40 -6 -10 -6 -16 -1
-13 5 3 15 -3 22 -15 10 -16 10 -19 0 -12 -7 4 -3 -6 9 -23 12 -17 22 -36 22
-43 0 -6 7 -18 16 -27 8 -9 13 -21 11 -28 -3 -6 4 -17 14 -23 10 -7 19 -21 19
-33 0 -13 4 -18 13 -13 7 5 6 0 -3 -11 -8 -10 -10 -16 -3 -12 7 4 16 -5 25
-23 7 -16 16 -30 20 -30 5 0 7 -6 5 -12 -1 -7 4 -12 12 -10 12 3 12 1 1 -13
-7 -9 -9 -15 -4 -13 5 2 10 -1 11 -5 1 -5 11 -17 22 -26 11 -10 18 -21 14 -25
-3 -3 -1 -6 6 -6 7 0 9 -5 5 -12 -4 -6 -3 -8 3 -5 5 3 20 -7 32 -24 12 -16 26
-27 32 -24 8 6 13 -8 10 -27 0 -5 4 -8 10 -8 7 0 25 -13 40 -30 16 -16 29 -27
29 -23 0 4 7 -2 16 -13 8 -10 12 -12 9 -4 -4 8 4 2 17 -14 17 -20 29 -27 39
-21 8 5 11 5 7 1 -10 -12 15 -34 31 -28 8 3 12 1 8 -4 -3 -6 10 -16 29 -23 19
-7 32 -16 29 -21 -3 -4 4 -6 15 -3 12 3 20 0 20 -6 0 -7 4 -10 9 -6 5 3 16 -1
24 -9 17 -17 28 -11 20 10 -3 8 1 14 8 14 11 0 11 3 -1 10 -8 5 -10 10 -4 10
6 0 10 16 9 35 -1 20 2 38 6 41 5 3 5 13 0 23 -5 9 -6 23 -2 30 5 7 5 28 1 47
-4 19 -5 32 -1 30 9 -6 7 66 -2 81 -4 6 -3 14 2 18 6 3 7 15 2 28 -4 12 -5 33
-1 47 4 14 2 31 -3 38 -7 9 -7 16 1 24 11 11 5 41 -7 34 -4 -3 -6 18 -6 45 0
27 -2 49 -5 49 -3 0 -7 10 -8 23 -5 37 -9 62 -12 62 -2 0 -6 28 -12 73 -1 6
-5 12 -10 12 -5 0 -7 4 -3 9 3 5 0 13 -6 16 -5 4 -8 13 -5 21 3 7 -1 20 -9 28
-8 7 -12 16 -9 19 4 3 2 12 -2 19 -9 13 -10 18 -13 39 0 5 -4 8 -8 6 -5 -3 -9
6 -10 20 0 14 -7 29 -15 34 -7 5 -8 9 -3 9 6 0 1 7 -9 15 -14 10 -15 15 -6 15
9 0 6 6 -8 16 -12 8 -22 22 -22 30 0 8 -4 12 -10 9 -5 -3 -10 -1 -10 5 0 15
-26 41 -33 33 -4 -3 -5 4 -2 15 2 12 1 21 -3 20 -13 -2 -42 14 -42 24 0 5 -7
16 -15 24 -12 12 -15 12 -15 2 -1 -7 -7 -1 -15 13 -8 15 -26 30 -41 33 -14 4
-24 10 -21 13 7 6 -58 53 -74 53 -5 0 -22 12 -36 28 -15 15 -23 20 -18 12 6
-11 3 -10 -12 3 -11 9 -25 17 -31 17 -7 0 -12 5 -12 10 0 6 -9 10 -21 10 -13
0 -18 4 -13 12 5 8 2 9 -9 5 -9 -3 -20 0 -24 8 -5 7 -10 13 -13 12 -3 -1 -23
6 -45 15 -22 9 -44 16 -48 17 -4 0 -15 8 -24 17 -11 10 -18 13 -21 6 -2 -7
-12 -4 -24 8 -12 11 -24 17 -28 15 -5 -3 -20 2 -36 10 -15 7 -31 12 -36 9 -4
-3 -8 0 -8 6 0 6 -4 9 -9 5 -5 -3 -16 1 -24 9 -8 8 -17 13 -20 10 -3 -3 -21 2
-41 10 -20 8 -39 15 -41 16 -35 5 -66 14 -71 21 -3 5 -14 4 -26 -2 -15 -8 -19
-8 -14 0 6 10 -13 16 -36 12 -5 0 -8 4 -8 10 0 8 -5 8 -15 -1 -12 -10 -15 -10
-15 2 0 10 -8 14 -25 13 -14 -2 -25 0 -25 4 0 10 -31 7 -49 -4 -9 -5 -12 -4
-8 2 4 6 -1 17 -10 24 -12 10 -14 10 -9 2 8 -15 -5 -17 -19 -5 -6 5 -18 7 -28
5z m223 -1389 c0 6 11 -2 44 -31 8 -7 17 -9 21 -5 5 4 5 -1 2 -11 -4 -10 -3
-16 1 -14 14 9 53 -13 46 -24 -4 -7 -3 -9 3 -6 6 4 18 -2 28 -13 10 -11 22
-17 26 -14 5 3 16 -2 25 -10 9 -9 19 -14 24 -11 5 3 12 0 16 -6 5 -8 3 -9 -6
-4 -9 5 -11 4 -6 -3 4 -7 14 -12 22 -12 8 0 13 -6 11 -12 -1 -7 4 -12 11 -11
6 2 12 -4 12 -13 0 -9 5 -12 12 -8 8 5 9 2 5 -10 -4 -10 -3 -15 4 -11 12 8 39
-12 39 -29 0 -6 -5 -4 -10 4 -9 13 -10 13 -10 0 0 -13 -1 -13 -10 0 -8 12 -10
12 -10 1 0 -11 -5 -10 -20 4 -11 10 -23 15 -27 12 -4 -4 -18 3 -31 15 -14 13
-22 16 -17 8 8 -15 6 -14 -52 40 -13 11 -27 20 -33 20 -5 0 -6 8 -3 18 6 15 5
15 -10 3 -15 -12 -17 -11 -17 7 0 12 -5 24 -12 28 -7 5 -8 2 -3 -7 4 -8 -6 2
-23 21 -16 19 -27 39 -24 44 3 5 -3 6 -14 2 -10 -4 -15 -4 -11 0 3 4 -3 15
-15 26 -12 10 -23 26 -24 36 -2 13 2 11 17 -7 10 -13 19 -20 19 -17z"/>
<path d="M615 3140 c-17 -4 -41 -6 -53 -5 -17 1 -21 -2 -17 -14 5 -12 3 -13
-6 -4 -12 12 -39 7 -39 -9 0 -5 4 -7 9 -3 5 3 12 -4 16 -15 3 -11 11 -20 16
-20 6 0 7 -4 4 -10 -3 -5 -1 -10 5 -10 6 0 8 -5 5 -10 -4 -6 -1 -9 7 -8 7 2
12 -3 10 -9 -1 -7 5 -13 13 -13 8 0 15 -9 15 -21 0 -12 4 -17 11 -14 6 4 13
-2 16 -14 3 -12 9 -21 14 -21 5 0 9 -7 9 -16 0 -8 5 -12 10 -9 6 3 10 -1 10
-9 0 -9 5 -16 10 -16 6 0 10 -5 10 -11 0 -16 90 -100 101 -94 5 4 9 2 9 -2 0
-5 10 -10 23 -10 12 -1 33 -5 45 -8 15 -4 21 -2 17 4 -3 7 0 8 10 5 8 -4 23 0
32 7 14 12 15 12 9 1 -7 -11 -4 -12 11 -3 11 6 24 7 28 3 5 -4 5 -2 1 5 -4 7
3 14 16 19 l21 6 -24 14 c-27 15 -52 19 -29 4 8 -5 10 -10 5 -10 -6 0 -16 5
-23 12 -9 9 -12 9 -12 0 0 -10 -3 -10 -14 0 -8 7 -11 18 -8 23 3 6 -2 4 -11
-4 -10 -8 -20 -11 -24 -7 -3 3 0 6 8 7 8 0 4 4 -9 10 -15 5 -21 13 -16 21 4 7
3 10 -1 5 -10 -9 -65 41 -65 60 0 7 6 10 15 7 8 -4 12 -11 8 -17 -4 -6 0 -8
10 -4 10 4 18 -1 22 -13 3 -11 9 -19 13 -19 21 3 32 -3 33 -18 0 -12 2 -13 6
-5 4 9 8 10 18 2 7 -6 27 -12 44 -13 17 -1 31 -4 31 -7 0 -3 9 -6 19 -7 19 -2
22 11 8 35 -5 7 -3 12 5 12 8 0 6 5 -5 11 -9 6 -15 14 -12 20 4 5 -1 12 -9 15
-9 3 -13 11 -9 17 3 5 -1 15 -9 21 -16 13 -32 46 -29 61 2 6 0 7 -4 3 -9 -8
-35 16 -35 32 0 6 -4 8 -10 5 -5 -3 -10 -2 -10 3 0 13 -50 33 -62 26 -7 -4 -8
-2 -4 4 4 7 4 13 -1 13 -4 1 -21 3 -37 5 -15 1 -31 5 -34 8 -3 3 -11 1 -19 -5
-8 -8 -13 -8 -13 -1 0 11 -18 11 -37 -1 -7 -5 -13 -4 -13 1 0 10 -14 11 -55 2z"/>
<path d="M4425 3012 c-5 -11 -9 -13 -12 -4 -3 6 -8 10 -12 8 -3 -2 -27 -7 -51
-11 -25 -4 -49 -7 -55 -8 -5 -1 -13 -6 -17 -12 -4 -5 -13 -10 -21 -10 -16 0
-87 -68 -87 -84 0 -6 -5 -11 -11 -11 -5 0 -7 -4 -4 -10 3 -5 1 -10 -4 -10 -6
0 -11 -7 -11 -16 0 -11 -5 -14 -16 -10 -14 5 -15 4 -5 -8 8 -10 9 -16 1 -21
-6 -3 -8 -11 -5 -16 4 -5 2 -9 -3 -9 -20 0 -19 -47 1 -59 15 -10 17 -10 11 0
-5 9 -2 10 9 6 10 -3 17 -2 17 2 0 5 8 8 18 6 9 -1 23 2 30 8 6 5 12 6 12 1 0
-4 7 1 16 12 8 10 13 12 9 4 -4 -8 1 -6 10 5 9 11 21 19 26 17 5 -1 12 5 15
13 4 8 16 15 28 15 20 -1 20 -1 3 -14 -10 -8 -18 -18 -18 -23 1 -4 -5 -8 -11
-8 -7 -1 -12 -7 -10 -14 1 -7 -2 -10 -8 -6 -5 3 -10 -1 -10 -10 0 -9 -4 -14
-9 -11 -5 3 -14 -1 -21 -9 -6 -7 -18 -11 -26 -8 -8 3 -14 1 -14 -5 0 -12 -33
-10 -42 3 -5 6 -8 5 -8 -2 0 -7 -7 -13 -16 -13 -14 0 -14 -1 0 -16 9 -8 20
-12 26 -9 5 3 10 2 10 -3 0 -19 96 -36 106 -20 3 5 12 4 20 -3 10 -8 14 -8 14
0 0 6 4 10 8 9 19 -6 81 38 103 74 13 21 32 41 41 44 10 3 18 10 18 16 0 6 -5
7 -13 2 -7 -5 -1 2 13 15 14 13 18 20 10 16 -8 -5 2 7 23 26 20 19 37 40 37
47 0 6 5 12 12 12 6 0 9 2 6 5 -3 3 10 22 28 42 36 39 31 57 -15 48 -15 -3
-21 1 -21 13 0 13 -2 14 -9 4 -10 -16 -9 -16 -44 -3 -16 6 -26 7 -23 3 2 -4
-4 -8 -14 -8 -10 0 -17 4 -14 7 2 4 0 10 -5 13 -5 3 -12 -2 -16 -12z m-81
-180 c2 -4 -5 -9 -17 -9 -17 -2 -19 0 -7 7 18 12 18 12 24 2z"/>
<path d="M1836 2552 c-3 -5 1 -9 9 -9 8 0 12 4 9 9 -3 4 -7 8 -9 8 -2 0 -6 -4
-9 -8z"/>
<path d="M3966 2318 c5 -8 2 -9 -9 -5 -10 3 -17 2 -17 -4 0 -6 -5 -7 -10 -4
-6 4 -18 1 -27 -7 -14 -11 -16 -11 -8 2 7 12 6 13 -7 3 -8 -7 -19 -9 -23 -5
-5 4 -5 2 -2 -4 3 -6 -7 -18 -24 -28 -16 -9 -29 -14 -29 -10 0 4 -9 -2 -20
-14 -12 -12 -25 -22 -30 -22 -6 0 -10 -7 -10 -16 0 -8 -4 -13 -9 -10 -5 3 -12
-1 -15 -10 -3 -8 -10 -13 -14 -10 -5 3 -14 -6 -20 -19 -7 -14 -16 -25 -22 -25
-5 0 -10 -7 -10 -16 0 -9 -5 -12 -12 -8 -8 5 -9 2 -5 -10 4 -9 3 -15 -1 -13
-4 3 -13 -1 -20 -9 -7 -8 -9 -14 -5 -14 4 0 0 -5 -10 -11 -18 -10 -18 -11 0
-24 10 -7 21 -11 25 -9 5 3 14 2 21 -3 6 -4 19 -8 27 -8 8 0 21 -4 28 -8 7 -5
12 -3 12 4 0 10 3 10 12 1 8 -8 17 -8 30 -1 10 5 23 7 29 4 5 -4 15 -2 22 3 7
5 22 8 34 7 12 -1 20 2 17 7 -5 7 9 12 28 10 3 -1 11 5 18 13 6 7 18 11 26 8
8 -3 14 0 14 7 0 6 5 8 10 5 6 -3 10 -1 10 5 0 7 6 10 14 7 8 -3 17 -1 20 6 3
8 5 8 5 1 1 -6 -14 -22 -33 -35 -19 -13 -32 -27 -30 -31 3 -5 2 -7 -3 -6 -14
4 -53 -13 -53 -23 0 -6 -5 -7 -10 -4 -6 3 -13 -1 -16 -9 -3 -9 -10 -13 -15
-10 -5 3 -9 -1 -9 -8 0 -10 -2 -10 -9 1 -6 10 -10 10 -16 1 -6 -9 -10 -9 -16
1 -7 11 -9 11 -9 -1 0 -9 -10 -16 -25 -16 -14 -1 -22 2 -19 8 4 6 -3 5 -15 -1
-12 -7 -21 -8 -21 -2 0 5 -10 7 -22 4 -17 -3 -19 -2 -10 5 10 6 5 9 -17 8 -38
-1 -46 -18 -21 -48 11 -13 19 -19 20 -15 0 4 11 -4 25 -18 24 -23 32 -27 51
-24 4 0 10 -5 15 -13 8 -13 12 -14 45 -17 8 0 12 -6 8 -12 -5 -8 -2 -9 12 -1
12 7 25 7 36 1 10 -6 24 -7 30 -3 6 4 25 9 42 10 50 5 56 7 56 16 0 5 4 7 9 4
5 -3 23 9 41 27 18 17 30 27 27 21 -3 -6 0 -11 8 -11 8 0 13 4 12 8 -3 12 45
49 56 42 6 -3 7 -1 3 5 -4 7 -3 12 2 12 6 0 20 11 33 25 13 13 32 25 42 25 9
0 17 5 17 12 0 6 3 8 7 4 4 -3 13 4 20 16 7 14 12 17 13 9 0 -11 4 -9 15 5 8
10 15 15 15 9 0 -5 7 1 16 13 8 12 22 22 30 22 8 0 14 5 14 11 0 5 5 7 10 4 6
-3 10 -1 10 5 0 6 5 8 10 5 6 -4 9 -1 8 7 -2 7 7 14 19 16 15 2 20 8 16 19 -4
11 -2 14 5 9 24 -15 11 2 -14 19 -18 11 -24 13 -19 4 5 -8 -3 -5 -16 7 -35 30
-54 41 -44 23 5 -8 -1 -5 -13 5 -12 11 -22 15 -22 10 0 -5 -4 -4 -8 1 -16 23
-49 34 -62 22 -10 -9 -11 -9 -6 1 5 7 1 12 -9 12 -10 0 -13 5 -9 12 4 7 3 8
-4 4 -16 -9 -63 4 -56 16 4 6 -4 4 -17 -2 -17 -10 -24 -10 -27 -1 -2 6 -17 11
-33 11 -17 0 -28 4 -24 10 3 6 -1 7 -9 4 -9 -3 -13 -11 -9 -18 4 -7 2 -7 -7 1
-9 9 -19 9 -33 2 -12 -7 -17 -7 -13 -1 3 5 -1 13 -10 16 -10 4 -13 2 -8 -6z"/>
<path d="M3083 2070 c1 -8 -3 -14 -10 -13 -8 2 -10 -4 -6 -14 4 -11 3 -14 -5
-9 -8 5 -10 2 -6 -8 3 -9 1 -16 -6 -16 -6 0 -9 -4 -5 -9 3 -5 -1 -15 -8 -23
-7 -7 -15 -17 -17 -23 -15 -50 -23 -64 -33 -58 -5 3 -7 1 -3 -5 3 -6 2 -13 -4
-17 -5 -3 -10 -15 -10 -25 0 -10 -6 -25 -13 -32 -7 -7 -15 -17 -17 -23 -7 -25
-25 -61 -33 -66 -4 -3 -9 -14 -11 -25 -6 -29 -32 -74 -39 -67 -4 3 -5 -4 -2
-15 2 -11 -3 -26 -11 -33 -8 -6 -14 -18 -14 -25 0 -8 -5 -14 -11 -14 -5 0 -8
-4 -5 -9 3 -5 -4 -21 -16 -37 -13 -15 -16 -24 -8 -19 8 5 5 -4 -8 -19 -12 -16
-22 -34 -22 -40 0 -18 -35 -35 -51 -26 -8 6 -16 4 -21 -3 -5 -8 -11 -8 -15 -2
-8 10 -93 15 -93 5 0 -3 -11 -5 -25 -5 -14 0 -25 2 -25 5 0 3 -15 5 -32 5 -25
-1 -33 -6 -35 -20 -1 -11 -4 -32 -6 -47 -2 -15 0 -25 5 -22 5 3 7 -6 4 -20 -3
-14 0 -26 5 -26 5 0 9 -5 9 -11 0 -5 -4 -8 -9 -4 -6 3 -8 -4 -4 -17 3 -13 6
-40 6 -60 1 -21 5 -38 9 -38 4 0 4 -11 -1 -23 -5 -13 -6 -29 -2 -35 8 -14 7
-54 -3 -70 -4 -7 -2 -12 4 -12 6 0 8 -5 4 -12 -4 -6 -8 -30 -9 -53 0 -22 -5
-47 -10 -55 -8 -13 -7 -13 8 -1 15 12 17 12 11 -3 -3 -9 -10 -16 -14 -16 -4 0
-5 -12 -2 -26 3 -17 1 -25 -5 -21 -6 4 -8 -3 -5 -18 2 -14 -1 -31 -7 -39 -9
-11 -9 -16 0 -22 9 -5 7 -11 -6 -21 -11 -7 -13 -13 -7 -13 10 0 10 -5 0 -22
-6 -13 -12 -32 -12 -44 -1 -11 -7 -28 -13 -36 -10 -11 -10 -17 -1 -26 9 -9 7
-12 -8 -12 -14 0 -16 -2 -5 -9 9 -6 10 -11 2 -15 -6 -4 -9 -12 -6 -17 4 -5 1
-9 -5 -9 -6 0 -9 -4 -6 -9 3 -5 -1 -14 -9 -21 -12 -10 -13 -16 -3 -28 11 -13
11 -14 -1 -7 -11 6 -13 4 -8 -8 3 -10 3 -17 -2 -17 -5 0 -12 -11 -15 -25 -4
-14 -11 -23 -16 -20 -6 3 -7 -1 -4 -9 4 -10 1 -16 -7 -16 -7 0 -9 -3 -6 -7 4
-3 -1 -15 -10 -26 -13 -15 -14 -19 -3 -13 8 4 7 1 -4 -8 -10 -8 -15 -19 -12
-25 4 -5 -2 -16 -12 -23 -11 -7 -19 -15 -18 -18 2 -10 -31 -50 -37 -44 -3 3
-3 -4 0 -17 4 -13 2 -20 -4 -16 -9 6 -40 -27 -32 -34 2 -2 -11 -18 -28 -35
-18 -17 -30 -34 -26 -37 3 -4 1 -7 -5 -7 -22 0 -12 -18 13 -22 14 -3 25 -1 25
4 0 5 8 5 18 -1 11 -6 24 -6 35 0 11 7 17 7 17 0 0 -10 25 -9 35 1 3 3 22 2
41 -2 20 -5 34 -4 34 1 0 6 9 5 20 -1 11 -6 20 -7 20 -1 0 5 14 6 35 1 20 -4
38 -4 41 1 3 5 13 5 25 -1 11 -6 19 -7 19 -1 0 5 14 6 35 1 20 -4 38 -4 41 1
3 5 13 5 25 -1 11 -6 19 -7 19 -1 0 5 14 6 35 1 19 -4 37 -4 40 1 3 4 16 4 28
0 14 -5 30 -5 40 0 11 7 17 6 17 0 0 -6 11 -6 30 -1 19 5 30 5 30 -1 0 -6 6
-7 12 -3 17 11 48 12 48 3 0 -4 14 -4 30 1 19 5 30 5 30 -1 0 -6 6 -7 12 -3
17 11 48 12 48 3 0 -4 14 -4 30 1 19 5 30 5 30 -1 0 -6 6 -7 12 -3 17 11 48
12 48 3 0 -4 15 -3 32 2 20 5 34 5 36 0 2 -5 15 -6 33 -1 17 5 29 5 29 0 0 -6
12 -5 27 1 18 7 29 7 31 0 2 -6 14 -6 33 -1 17 5 29 5 29 0 0 -6 10 -6 23 -1
12 4 27 6 33 4 6 -2 11 3 11 12 0 8 -7 15 -14 15 -8 0 -12 4 -8 9 3 6 -5 20
-17 32 -13 12 -17 19 -11 15 9 -5 11 -2 7 8 -3 8 -12 17 -20 20 -7 3 -11 12
-8 19 3 8 -2 17 -11 21 -10 3 -15 12 -11 21 3 8 1 15 -4 15 -6 0 -10 7 -10 15
0 8 -5 15 -11 15 -8 0 -8 5 1 15 7 8 8 15 4 15 -5 0 -15 9 -22 21 -8 12 -9 18
-2 14 6 -3 2 9 -9 28 -13 23 -16 38 -9 45 6 6 6 12 -3 17 -8 6 -10 4 -4 -5 5
-8 4 -11 -3 -6 -6 3 -9 15 -7 26 2 11 0 20 -4 20 -5 0 -11 9 -14 20 -3 11 -1
18 4 15 4 -3 2 9 -5 27 -7 18 -11 39 -8 47 3 9 0 11 -8 6 -9 -5 -10 -2 -5 14
4 13 2 21 -6 21 -8 0 -9 3 0 14 9 10 8 16 -3 25 -9 7 -13 24 -11 42 2 16 0 29
-4 29 -5 0 -12 7 -15 16 -4 9 -2 13 5 8 8 -4 9 1 3 17 -4 13 -7 30 -7 37 0 6
-4 12 -9 12 -5 0 -4 9 2 19 8 16 6 22 -7 30 -13 8 -14 10 -4 11 12 0 12 3 3
12 -14 14 -16 42 -2 33 5 -3 3 7 -5 22 -11 21 -12 29 -2 35 8 5 9 8 0 8 -6 0
-10 13 -9 29 1 17 -1 28 -6 25 -4 -3 -5 9 -3 26 2 16 -1 30 -6 30 -6 0 -5 8 1
20 8 15 8 20 -1 20 -9 0 -9 3 0 14 8 10 8 16 -2 24 -14 12 -15 62 -2 83 5 7 4
10 -3 5 -6 -3 -13 -2 -17 4 -3 5 -2 10 3 10 10 0 9 30 -2 48 -4 7 -2 12 6 12
8 0 9 3 3 8 -6 4 -10 31 -10 60 1 29 -3 56 -7 58 -4 3 -8 10 -8 15 0 6 5 7 11
3 8 -4 8 -1 2 12 -5 11 -8 30 -7 44 1 14 -3 28 -10 32 -7 5 -8 8 0 8 9 0 12
38 4 48 -7 7 -5 29 3 40 6 7 6 12 0 12 -5 0 -10 7 -10 15 0 8 3 15 6 15 4 0 6
12 5 28 -1 15 -3 27 -4 27 -1 0 -4 12 -6 28 -1 15 2 27 9 27 6 0 2 7 -9 15
-10 8 -14 15 -9 15 6 0 9 23 7 56 -3 44 -1 55 9 49 7 -5 5 2 -4 16 -19 26 -22
43 -8 34 5 -3 12 -1 15 4 4 5 1 13 -5 17 -8 5 -9 3 -4 -7 5 -8 4 -11 0 -6 -12
10 -13 77 -2 77 5 0 4 6 -2 14 -9 11 -9 15 1 19 7 3 3 4 -9 4 -15 -1 -22 -7
-20 -17z"/>
<path d="M4190 1979 c0 -5 5 -7 10 -4 6 3 10 8 10 11 0 2 -4 4 -10 4 -5 0 -10
-5 -10 -11z"/>
</g>
</svg>
