<?xml version="1.0" standalone="no"?>
<!DOCTYPE svg PUBLIC "-//W3C//DTD SVG 20010904//EN"
 "http://www.w3.org/TR/2001/REC-SVG-20010904/DTD/svg10.dtd">
<svg version="1.0" xmlns="http://www.w3.org/2000/svg"
 width="512.000000pt" height="512.000000pt" viewBox="0 0 512.000000 512.000000"
 preserveAspectRatio="xMidYMid meet">
<metadata>
Created by potrace 1.11, written by Peter Selinger 2001-2013
</metadata>
<g transform="translate(0.000000,512.000000) scale(0.100000,-0.100000)"
fill="#000000" stroke="none">
<path d="M2540 5053 c-88 -99 -141 -219 -136 -302 4 -51 53 -157 100 -216 20
-25 26 -28 39 -16 9 7 16 16 15 19 -1 4 4 25 10 48 12 41 8 132 -8 192 -11 43
-4 41 16 -5 44 -102 47 -155 14 -230 -10 -24 -15 -43 -10 -43 21 0 97 70 119
110 35 63 31 106 -26 250 -28 69 -58 149 -68 178 -11 28 -22 52 -26 52 -4 0
-21 -17 -39 -37z"/>
<path d="M3475 4865 c-259 -64 -461 -168 -559 -288 -31 -38 -106 -207 -91
-207 2 0 0 -12 -6 -27 -12 -30 -21 -289 -12 -335 5 -27 6 -27 38 -13 50 20
136 87 183 140 41 47 123 197 157 288 10 26 20 46 22 43 5 -5 -21 -134 -42
-202 -43 -145 -106 -224 -238 -299 -67 -37 -68 -36 43 -41 83 -3 148 11 229
49 119 56 173 136 221 329 15 62 40 158 55 213 14 55 35 132 45 170 11 39 26
96 35 128 9 32 15 62 13 66 -2 5 -43 -2 -93 -14z"/>
<path d="M1636 4713 c2 -20 6 -48 9 -62 2 -14 7 -46 10 -71 3 -25 11 -74 16
-110 6 -36 12 -83 15 -105 3 -22 7 -49 9 -61 3 -11 14 -86 25 -165 11 -79 22
-151 25 -159 2 -8 6 -50 10 -93 13 -160 67 -306 144 -382 113 -115 276 -184
451 -192 l105 -5 -45 32 c-85 62 -174 145 -216 202 -63 86 -103 231 -120 428
-3 36 -7 80 -8 98 -2 17 0 32 5 32 5 0 9 -6 10 -12 1 -23 6 -41 44 -158 70
-216 136 -334 250 -444 57 -56 152 -122 162 -113 8 9 30 124 40 212 4 39 8
129 7 200 0 157 -30 304 -78 390 -96 172 -308 337 -596 464 -123 54 -132 58
-207 85 l-72 25 5 -36z"/>
<path d="M945 4628 c2 -7 6 -36 9 -65 3 -28 8 -57 11 -65 2 -7 7 -35 9 -63 3
-27 12 -93 20 -145 9 -52 18 -122 22 -155 3 -32 15 -84 26 -115 40 -109 168
-192 309 -200 60 -4 66 -1 38 18 -130 86 -170 163 -194 372 -8 66 6 58 25 -15
33 -126 109 -248 194 -313 50 -38 56 -31 72 88 14 101 2 234 -28 315 -43 115
-201 237 -420 324 -84 34 -99 37 -93 19z"/>
<path d="M3846 4579 c-58 -14 -107 -46 -143 -93 -40 -52 -77 -121 -87 -160
l-7 -28 48 7 c57 8 120 42 181 99 62 56 38 11 -32 -59 -50 -52 -97 -75 -155
-75 -19 0 -21 -3 -12 -14 20 -24 97 -45 151 -42 69 4 97 29 235 206 l112 145
-31 8 c-49 12 -217 16 -260 6z"/>
<path d="M4046 4074 c-640 -157 -1056 -411 -1166 -711 -11 -32 -24 -65 -27
-73 -3 -8 -7 -17 -8 -20 0 -3 -9 -30 -18 -61 -40 -134 -59 -284 -61 -474 -1
-115 11 -305 19 -314 8 -7 162 76 220 119 94 69 199 175 251 252 60 90 176
320 229 453 21 55 43 105 48 110 5 6 6 4 3 -5 -3 -8 -8 -33 -11 -55 -28 -203
-96 -439 -167 -577 -64 -124 -193 -237 -389 -342 l-80 -43 58 -12 c94 -19 302
-8 403 22 150 43 278 112 353 189 94 97 173 265 207 443 10 50 54 219 126 485
8 30 17 64 20 75 3 11 6 25 8 30 2 6 6 24 11 40 4 17 18 68 30 115 13 47 40
146 60 220 20 74 38 143 41 153 7 22 6 22 -160 -19z"/>
<path d="M1105 3458 c4 -18 31 -121 60 -228 67 -244 215 -798 215 -802 0 -2
-44 -2 -97 -2 -87 1 -180 -7 -249 -21 -13 -3 -36 -8 -51 -11 -25 -5 -113 -29
-200 -55 -18 -5 -34 -13 -37 -18 -3 -4 122 -134 277 -289 253 -251 290 -285
350 -313 110 -51 246 -44 383 20 60 28 66 29 98 16 42 -18 167 -52 221 -60 61
-10 223 -7 284 5 29 5 56 10 60 10 3 0 -19 12 -49 26 -90 41 -247 152 -319
223 -75 75 -122 157 -169 296 -29 86 -65 218 -76 278 -3 15 -7 35 -10 45 -2 9
-7 40 -11 67 -3 28 -8 61 -11 75 -2 14 5 3 16 -25 11 -27 24 -59 29 -70 5 -11
22 -49 37 -85 46 -106 137 -280 188 -359 77 -119 217 -246 363 -329 94 -53
110 -58 117 -35 16 55 23 338 11 458 -21 218 -59 364 -140 529 -83 170 -324
360 -605 476 -41 17 -84 35 -95 40 -69 33 -433 139 -535 156 -14 3 -33 7 -44
10 -16 5 -17 2 -11 -28z m260 -1380 c33 -24 89 -62 125 -83 36 -21 88 -60 115
-85 28 -26 61 -54 75 -64 31 -20 13 -20 -56 0 -63 18 -154 84 -236 171 -66 69
-119 132 -98 117 8 -6 42 -31 75 -56z"/>
<path d="M647 3144 c-1 -1 -28 -5 -60 -8 -32 -4 -64 -9 -72 -12 -10 -4 9 -35
63 -103 42 -54 88 -113 102 -132 41 -55 99 -108 126 -115 39 -10 125 1 167 21
42 20 35 35 -16 35 -42 0 -100 34 -142 82 -60 70 -62 86 -4 37 64 -55 88 -68
150 -84 72 -19 78 -8 40 69 -51 105 -101 161 -164 184 -42 16 -180 35 -190 26z"/>
<path d="M4298 2994 c-64 -20 -129 -87 -174 -181 -41 -85 -37 -96 28 -81 58
13 95 34 163 92 l60 51 -35 -49 c-62 -86 -107 -118 -185 -130 -21 -4 -41 -9
-43 -11 -12 -12 95 -47 143 -47 75 -1 110 24 207 150 45 59 84 109 88 112 3 3
20 23 37 46 l32 41 -50 11 c-68 16 -213 14 -271 -4z"/>
<path d="M3945 2313 c-59 -11 -154 -66 -215 -124 -51 -49 -130 -144 -130 -157
0 -16 37 -25 114 -28 81 -2 138 12 256 67 72 34 81 36 55 14 -51 -42 -133 -95
-182 -117 -39 -17 -60 -20 -127 -15 -45 3 -90 8 -101 12 -11 4 6 -18 37 -48
95 -92 219 -123 318 -79 25 11 72 39 105 64 33 24 131 93 218 152 l158 109
-42 24 c-61 35 -178 84 -234 100 -84 22 -185 34 -230 26z"/>
<path d="M2927 1759 l-178 -359 -150 0 -151 0 6 -27 c36 -172 34 -469 -5 -653
-50 -238 -152 -456 -291 -628 l-59 -72 681 0 c374 1 680 3 680 6 0 3 -13 24
-29 47 -80 117 -175 395 -215 627 -3 19 -8 46 -11 60 -3 14 -7 43 -10 65 -4
22 -8 49 -10 60 -1 11 -6 45 -10 75 -4 30 -9 66 -11 80 -2 14 -6 54 -9 90 -3
36 -7 79 -10 95 -4 27 -7 63 -21 270 -2 33 -7 186 -10 340 -4 154 -7 281 -8
282 0 0 -81 -160 -179 -358z"/>
</g>
</svg>
